<svg width="351" height="332" viewBox="0 0 351 332" fill="none" xmlns="http://www.w3.org/2000/svg">
<ellipse cx="137.5" cy="210" rx="137.5" ry="107" fill="#D9D9D9"/>
<rect x="54" y="158" width="148" height="147" rx="73.5" fill="white"/>
<ellipse cx="126.838" cy="86.1899" rx="94" ry="86" fill="#D9D9D9"/>
<circle cx="163.838" cy="79.1899" r="24" fill="#0B0A0A"/>
<circle cx="80.8376" cy="79.1899" r="24" fill="#0B0A0A"/>
<ellipse cx="178.338" cy="76.1899" rx="9.5" ry="10" fill="white"/>
<ellipse cx="66.3376" cy="79.1899" rx="9.5" ry="10" fill="white"/>
<ellipse cx="46.6389" cy="209.284" rx="15" ry="29.5" transform="rotate(-46.9769 46.6389 209.284)" fill="#D1CBCB"/>
<ellipse cx="213.304" cy="208.656" rx="15" ry="29.5" transform="rotate(45 213.304 208.656)" fill="#D1CBCB"/>
<rect x="119.838" y="106.19" width="5" height="14" fill="#0B0A0A"/>
<rect x="70.1902" y="122.19" width="5.66033" height="46.226" transform="rotate(73.6323 70.1902 122.19)" fill="#FFFEFE"/>
<rect x="65.0559" y="109.19" width="5.66033" height="46.226" transform="rotate(88.9506 65.0559 109.19)" fill="#FFFEFE"/>
<rect width="5.66033" height="46.226" transform="matrix(-0.2818 0.959473 0.959473 0.2818 180.433 122.19)" fill="#FFFEFE"/>
<rect width="5.66033" height="46.226" transform="matrix(-0.0183137 0.999832 0.999832 0.0183137 185.567 109.19)" fill="#FFFEFE"/>
<ellipse cx="74.3376" cy="308.19" rx="22.5" ry="23" fill="#D9D9D9"/>
<ellipse cx="182.338" cy="308.19" rx="22.5" ry="23" fill="#D9D9D9"/>
<path d="M128.592 103.885C125.808 107.903 119.867 107.903 117.084 103.885L114.861 100.676C111.644 96.0339 114.967 89.6899 120.615 89.6899H125.061C130.708 89.6899 134.031 96.0339 130.814 100.676L128.592 103.885Z" fill="#F8EAF5" stroke="black" stroke-width="3"/>
<ellipse cx="73.8376" cy="103.19" rx="15" ry="8" fill="#70D0FA"/>
<ellipse cx="174.838" cy="103.19" rx="15" ry="8" fill="#70D0FA"/>
</svg>
